<?xml version="1.0" standalone="no"?>
<!DOCTYPE svg PUBLIC "-//W3C//DTD SVG 20010904//EN"
 "http://www.w3.org/TR/2001/REC-SVG-20010904/DTD/svg10.dtd">
<svg version="1.0" xmlns="http://www.w3.org/2000/svg"
 width="200.000000pt" height="200.000000pt" viewBox="0 0 200.000000 200.000000"
 preserveAspectRatio="xMidYMid meet">
<metadata>
Created by potrace 1.14, written by Peter Selinger 2001-2017
</metadata>
<g transform="translate(0.000000,200.000000) scale(0.100000,-0.100000)"
fill="#000000" stroke="none">
<path d="M463 1925 c1 -43 -2 -76 -8 -78 -5 -2 -39 -3 -74 -2 -40 1 -65 -3
-68 -10 -2 -7 -5 -214 -6 -461 l-2 -449 -50 -2 c-27 -1 -61 -2 -75 -2 -25 -1
-26 -2 -25 -76 l1 -75 -78 0 -78 0 0 -230 c0 -177 3 -230 13 -231 6 0 41 0 77
1 l66 1 -1 -75 c-1 -42 2 -77 5 -77 3 -1 37 -2 75 -3 79 -1 72 8 74 -103 l1
-53 690 0 690 0 1 27 c0 16 1 50 2 78 l2 50 70 1 c39 1 72 2 75 3 3 0 5 34 5
74 l0 72 78 0 77 0 0 233 0 232 -78 0 -78 0 1 75 c1 84 10 76 -95 79 l-55 1
-2 410 c-2 226 -3 433 -3 461 l0 50 -75 -1 c-41 0 -75 2 -76 5 0 3 -1 37 -2
75 l-2 70 -152 3 -153 3 0 -79 0 -79 -75 2 c-47 1 -75 -3 -76 -9 0 -6 -1 -180
-2 -385 l-2 -375 -60 1 c-33 1 -67 2 -76 2 -14 1 -16 39 -16 374 0 206 -2 378
-6 383 -3 6 -38 10 -76 9 l-71 -1 0 78 0 78 -155 0 -154 0 2 -75z"/>
</g>
</svg>
